<svg width="50" height="50" viewBox="0 0 50 50" fill="none" xmlns="http://www.w3.org/2000/svg">
<mask id="mask0_15_191" style="mask-type:alpha" maskUnits="userSpaceOnUse" x="0" y="0" width="50" height="50">
<rect width="50" height="50" fill="#D9D9D9"/>
</mask>
<g mask="url(#mask0_15_191)">
<path d="M15.625 13.5418V9.77563C15.625 8.73675 15.9929 7.84942 16.7286 7.11366C17.4647 6.37789 18.3522 6.01001 19.3911 6.01001H30.6088C31.6477 6.01001 32.5352 6.37789 33.2713 7.11366C34.0071 7.84942 34.375 8.73675 34.375 9.77563V13.5418H41.0255C42.0644 13.5418 42.9519 13.9097 43.688 14.6454C44.4238 15.3815 44.7916 16.269 44.7916 17.3079V38.9423C44.7916 39.9812 44.4238 40.8687 43.688 41.6048C42.9519 42.3406 42.0644 42.7084 41.0255 42.7084H8.97446C7.93557 42.7084 7.04807 42.3406 6.31196 41.6048C5.5762 40.8687 5.20831 39.9812 5.20831 38.9423V17.3079C5.20831 16.269 5.5762 15.3815 6.31196 14.6454C7.04807 13.9097 7.93557 13.5418 8.97446 13.5418H15.625ZM18.75 13.5418H31.25V9.77563C31.25 9.58883 31.1899 9.43535 31.0698 9.31522C30.9496 9.19508 30.796 9.13501 30.6088 9.13501H19.3911C19.204 9.13501 19.0503 9.19508 18.9302 9.31522C18.81 9.43535 18.75 9.58883 18.75 9.77563V13.5418ZM8.33331 34.9762H41.6666V29.6074H8.33331V34.9762Z" fill="url(#paint0_linear_15_191)"/>
<path d="M15.625 13.5418V9.77563C15.625 8.73675 15.9929 7.84942 16.7286 7.11366C17.4647 6.37789 18.3522 6.01001 19.3911 6.01001H30.6088C31.6477 6.01001 32.5352 6.37789 33.2713 7.11366C34.0071 7.84942 34.375 8.73675 34.375 9.77563V13.5418H41.0255C42.0644 13.5418 42.9519 13.9097 43.688 14.6454C44.4238 15.3815 44.7916 16.269 44.7916 17.3079V38.9423C44.7916 39.9812 44.4238 40.8687 43.688 41.6048C42.9519 42.3406 42.0644 42.7084 41.0255 42.7084H8.97446C7.93557 42.7084 7.04807 42.3406 6.31196 41.6048C5.5762 40.8687 5.20831 39.9812 5.20831 38.9423V17.3079C5.20831 16.269 5.5762 15.3815 6.31196 14.6454C7.04807 13.9097 7.93557 13.5418 8.97446 13.5418H15.625ZM18.75 13.5418H31.25V9.77563C31.25 9.58883 31.1899 9.43535 31.0698 9.31522C30.9496 9.19508 30.796 9.13501 30.6088 9.13501H19.3911C19.204 9.13501 19.0503 9.19508 18.9302 9.31522C18.81 9.43535 18.75 9.58883 18.75 9.77563V13.5418ZM8.33331 34.9762H41.6666V29.6074H8.33331V34.9762Z" fill="url(#paint1_linear_15_191)"/>
</g>
<defs>
<linearGradient id="paint0_linear_15_191" x1="5.20836" y1="24.359" x2="35.5211" y2="24.359" gradientUnits="userSpaceOnUse">
<stop stop-color="#52D17C"/>
<stop offset="0.33" stop-color="#4AA647"/>
</linearGradient>
<linearGradient id="paint1_linear_15_191" x1="24.9993" y1="6.00974" x2="24.9993" y2="31.5005" gradientUnits="userSpaceOnUse">
<stop stop-color="#29852F" stop-opacity="0.301961"/>
<stop offset="0.5" stop-color="#4AA647" stop-opacity="0"/>
</linearGradient>
</defs>
</svg>
