<svg width="50" height="50" viewBox="0 0 50 50" fill="none" xmlns="http://www.w3.org/2000/svg">
<mask id="mask0_15_175" style="mask-type:alpha" maskUnits="userSpaceOnUse" x="0" y="0" width="50" height="50">
<rect width="50" height="50" fill="#D9D9D9"/>
</mask>
<g mask="url(#mask0_15_175)">
<path d="M4.4474 40.9053C3.51511 40.9053 2.71441 40.5707 2.04532 39.9016C1.37622 39.2329 1.04167 38.4324 1.04167 37.5001H8.97448C7.92205 37.5001 7.03126 37.1355 6.30209 36.4063C5.57292 35.6772 5.20834 34.7864 5.20834 33.7339V11.0579C5.20834 10.0055 5.57292 9.11466 6.30209 8.3855C7.03126 7.65633 7.92205 7.29175 8.97448 7.29175H41.0255C42.078 7.29175 42.9688 7.65633 43.6979 8.3855C44.4271 9.11466 44.7917 10.0055 44.7917 11.0579V33.7339C44.7917 34.7864 44.4271 35.6772 43.6979 36.4063C42.9688 37.1355 42.078 37.5001 41.0255 37.5001H48.9583C48.9583 38.4324 48.6238 39.2329 47.9547 39.9016C47.2856 40.5707 46.4849 40.9053 45.5526 40.9053H4.4474ZM25 39.3428C25.4701 39.3428 25.8681 39.1799 26.1938 38.8543C26.5198 38.5286 26.6828 38.1306 26.6828 37.6605C26.6828 37.1904 26.5198 36.7923 26.1938 36.4662C25.8681 36.1405 25.4701 35.9777 25 35.9777C24.5299 35.9777 24.132 36.1405 23.8063 36.4662C23.4802 36.7923 23.3172 37.1904 23.3172 37.6605C23.3172 38.1306 23.4802 38.5286 23.8063 38.8543C24.132 39.1799 24.5299 39.3428 25 39.3428ZM8.97448 34.3751H41.0255C41.1859 34.3751 41.3328 34.3084 41.4662 34.1751C41.5998 34.0414 41.6667 33.8944 41.6667 33.7339V11.0579C41.6667 10.8975 41.5998 10.7506 41.4662 10.6173C41.3328 10.4836 41.1859 10.4167 41.0255 10.4167H8.97448C8.81407 10.4167 8.66719 10.4836 8.53386 10.6173C8.40018 10.7506 8.33334 10.8975 8.33334 11.0579V33.7339C8.33334 33.8944 8.40018 34.0414 8.53386 34.1751C8.66719 34.3084 8.81407 34.3751 8.97448 34.3751Z" fill="url(#paint0_linear_15_175)"/>
<path d="M4.4474 40.9053C3.51511 40.9053 2.71441 40.5707 2.04532 39.9016C1.37622 39.2329 1.04167 38.4324 1.04167 37.5001H8.97448C7.92205 37.5001 7.03126 37.1355 6.30209 36.4063C5.57292 35.6772 5.20834 34.7864 5.20834 33.7339V11.0579C5.20834 10.0055 5.57292 9.11466 6.30209 8.3855C7.03126 7.65633 7.92205 7.29175 8.97448 7.29175H41.0255C42.078 7.29175 42.9688 7.65633 43.6979 8.3855C44.4271 9.11466 44.7917 10.0055 44.7917 11.0579V33.7339C44.7917 34.7864 44.4271 35.6772 43.6979 36.4063C42.9688 37.1355 42.078 37.5001 41.0255 37.5001H48.9583C48.9583 38.4324 48.6238 39.2329 47.9547 39.9016C47.2856 40.5707 46.4849 40.9053 45.5526 40.9053H4.4474ZM25 39.3428C25.4701 39.3428 25.8681 39.1799 26.1938 38.8543C26.5198 38.5286 26.6828 38.1306 26.6828 37.6605C26.6828 37.1904 26.5198 36.7923 26.1938 36.4662C25.8681 36.1405 25.4701 35.9777 25 35.9777C24.5299 35.9777 24.132 36.1405 23.8063 36.4662C23.4802 36.7923 23.3172 37.1904 23.3172 37.6605C23.3172 38.1306 23.4802 38.5286 23.8063 38.8543C24.132 39.1799 24.5299 39.3428 25 39.3428ZM8.97448 34.3751H41.0255C41.1859 34.3751 41.3328 34.3084 41.4662 34.1751C41.5998 34.0414 41.6667 33.8944 41.6667 33.7339V11.0579C41.6667 10.8975 41.5998 10.7506 41.4662 10.6173C41.3328 10.4836 41.1859 10.4167 41.0255 10.4167H8.97448C8.81407 10.4167 8.66719 10.4836 8.53386 10.6173C8.40018 10.7506 8.33334 10.8975 8.33334 11.0579V33.7339C8.33334 33.8944 8.40018 34.0414 8.53386 34.1751C8.66719 34.3084 8.81407 34.3751 8.97448 34.3751Z" fill="url(#paint1_linear_15_175)"/>
</g>
<defs>
<linearGradient id="paint0_linear_15_175" x1="1.04173" y1="24.0983" x2="37.7361" y2="24.0983" gradientUnits="userSpaceOnUse">
<stop stop-color="#52D17C"/>
<stop offset="0.33" stop-color="#4AA647"/>
</linearGradient>
<linearGradient id="paint1_linear_15_175" x1="24.9992" y1="7.2915" x2="24.9992" y2="30.6395" gradientUnits="userSpaceOnUse">
<stop stop-color="#29852F" stop-opacity="0.301961"/>
<stop offset="0.5" stop-color="#4AA647" stop-opacity="0"/>
</linearGradient>
</defs>
</svg>
