<svg width="50" height="50" viewBox="0 0 50 50" fill="none" xmlns="http://www.w3.org/2000/svg">
<mask id="mask0_15_187" style="mask-type:alpha" maskUnits="userSpaceOnUse" x="0" y="0" width="50" height="50">
<rect width="50" height="50" fill="#D9D9D9"/>
</mask>
<g mask="url(#mask0_15_187)">
<path d="M24.9599 40.3442C23.28 39.1049 21.4745 38.1475 19.5432 37.4718C17.6123 36.7961 15.6118 36.4583 13.5417 36.4583C12.2705 36.4583 11.0219 36.599 9.79583 36.8806C8.56979 37.1626 7.38785 37.5774 6.25 38.1249C5.50764 38.4666 4.80122 38.4157 4.13073 37.9723C3.46024 37.5293 3.125 36.9017 3.125 36.0895V13.5098C3.125 13.0609 3.24392 12.6461 3.48177 12.2655C3.71927 11.885 4.04913 11.6079 4.47135 11.4343C5.88142 10.7478 7.35104 10.2331 8.88021 9.89002C10.4094 9.54662 11.9632 9.37492 13.5417 9.37492C15.5687 9.37492 17.5425 9.66207 19.463 10.2364C21.3835 10.8107 23.2292 11.6187 25 12.6603V36.5864C26.7576 35.4753 28.612 34.6553 30.563 34.1265C32.5141 33.5977 34.4792 33.3333 36.4583 33.3333C37.6549 33.3333 38.7453 33.4074 39.7297 33.5556C40.7137 33.7039 41.8535 33.9796 43.149 34.3827C43.2958 34.423 43.4328 34.4265 43.5599 34.3931C43.6866 34.3595 43.75 34.2492 43.75 34.0624V10.665C44.1104 10.772 44.4623 10.8909 44.8057 11.0218C45.1488 11.1527 45.4833 11.3169 45.8094 11.5145C46.1646 11.6881 46.4309 11.9418 46.6083 12.2754C46.7861 12.6095 46.875 12.9675 46.875 13.3494V36.0494C46.875 36.8616 46.5297 37.4859 45.8391 37.9223C45.1488 38.3591 44.4123 38.4133 43.6297 38.0848C42.5054 37.5504 41.3403 37.1458 40.1344 36.8708C38.9285 36.5957 37.7031 36.4583 36.4583 36.4583C34.375 36.4583 32.3545 36.786 30.3969 37.4416C28.4389 38.0975 26.6266 39.065 24.9599 40.3442ZM29.1667 31.2499V12.4999L39.5833 2.08325V21.8749L29.1667 31.2499Z" fill="url(#paint0_linear_15_187)"/>
<path d="M24.9599 40.3442C23.28 39.1049 21.4745 38.1475 19.5432 37.4718C17.6123 36.7961 15.6118 36.4583 13.5417 36.4583C12.2705 36.4583 11.0219 36.599 9.79583 36.8806C8.56979 37.1626 7.38785 37.5774 6.25 38.1249C5.50764 38.4666 4.80122 38.4157 4.13073 37.9723C3.46024 37.5293 3.125 36.9017 3.125 36.0895V13.5098C3.125 13.0609 3.24392 12.6461 3.48177 12.2655C3.71927 11.885 4.04913 11.6079 4.47135 11.4343C5.88142 10.7478 7.35104 10.2331 8.88021 9.89002C10.4094 9.54662 11.9632 9.37492 13.5417 9.37492C15.5687 9.37492 17.5425 9.66207 19.463 10.2364C21.3835 10.8107 23.2292 11.6187 25 12.6603V36.5864C26.7576 35.4753 28.612 34.6553 30.563 34.1265C32.5141 33.5977 34.4792 33.3333 36.4583 33.3333C37.6549 33.3333 38.7453 33.4074 39.7297 33.5556C40.7137 33.7039 41.8535 33.9796 43.149 34.3827C43.2958 34.423 43.4328 34.4265 43.5599 34.3931C43.6866 34.3595 43.75 34.2492 43.75 34.0624V10.665C44.1104 10.772 44.4623 10.8909 44.8057 11.0218C45.1488 11.1527 45.4833 11.3169 45.8094 11.5145C46.1646 11.6881 46.4309 11.9418 46.6083 12.2754C46.7861 12.6095 46.875 12.9675 46.875 13.3494V36.0494C46.875 36.8616 46.5297 37.4859 45.8391 37.9223C45.1488 38.3591 44.4123 38.4133 43.6297 38.0848C42.5054 37.5504 41.3403 37.1458 40.1344 36.8708C38.9285 36.5957 37.7031 36.4583 36.4583 36.4583C34.375 36.4583 32.3545 36.786 30.3969 37.4416C28.4389 38.0975 26.6266 39.065 24.9599 40.3442ZM29.1667 31.2499V12.4999L39.5833 2.08325V21.8749L29.1667 31.2499Z" fill="url(#paint1_linear_15_187)"/>
</g>
<defs>
<linearGradient id="paint0_linear_15_187" x1="3.12505" y1="21.2134" x2="36.6286" y2="21.2134" gradientUnits="userSpaceOnUse">
<stop stop-color="#52D17C"/>
<stop offset="0.33" stop-color="#4AA647"/>
</linearGradient>
<linearGradient id="paint1_linear_15_187" x1="24.9992" y1="2.08297" x2="24.9992" y2="28.659" gradientUnits="userSpaceOnUse">
<stop stop-color="#29852F" stop-opacity="0.301961"/>
<stop offset="0.5" stop-color="#4AA647" stop-opacity="0"/>
</linearGradient>
</defs>
</svg>
