<svg width="50" height="50" viewBox="0 0 50 50" fill="none" xmlns="http://www.w3.org/2000/svg">
<mask id="mask0_15_179" style="mask-type:alpha" maskUnits="userSpaceOnUse" x="0" y="0" width="50" height="50">
<rect width="50" height="50" fill="#D9D9D9"/>
</mask>
<g mask="url(#mask0_15_179)">
<path d="M6.77081 42.8687V14.7437H15.1041V6.4104H34.8958V23.0771H43.2291V42.8687H27.6041V34.5354H22.3958V42.8687H6.77081ZM9.89581 39.7437H15.1041V34.5354H9.89581V39.7437ZM9.89581 31.4104H15.1041V26.2021H9.89581V31.4104ZM9.89581 23.0771H15.1041V17.8687H9.89581V23.0771ZM18.2291 31.4104H23.4375V26.2021H18.2291V31.4104ZM18.2291 23.0771H23.4375V17.8687H18.2291V23.0771ZM18.2291 14.7437H23.4375V9.5354H18.2291V14.7437ZM26.5625 31.4104H31.7708V26.2021H26.5625V31.4104ZM26.5625 23.0771H31.7708V17.8687H26.5625V23.0771ZM26.5625 14.7437H31.7708V9.5354H26.5625V14.7437ZM34.8958 39.7437H40.1041V34.5354H34.8958V39.7437ZM34.8958 31.4104H40.1041V26.2021H34.8958V31.4104Z" fill="url(#paint0_linear_15_179)"/>
<path d="M6.77081 42.8687V14.7437H15.1041V6.4104H34.8958V23.0771H43.2291V42.8687H27.6041V34.5354H22.3958V42.8687H6.77081ZM9.89581 39.7437H15.1041V34.5354H9.89581V39.7437ZM9.89581 31.4104H15.1041V26.2021H9.89581V31.4104ZM9.89581 23.0771H15.1041V17.8687H9.89581V23.0771ZM18.2291 31.4104H23.4375V26.2021H18.2291V31.4104ZM18.2291 23.0771H23.4375V17.8687H18.2291V23.0771ZM18.2291 14.7437H23.4375V9.5354H18.2291V14.7437ZM26.5625 31.4104H31.7708V26.2021H26.5625V31.4104ZM26.5625 23.0771H31.7708V17.8687H26.5625V23.0771ZM26.5625 14.7437H31.7708V9.5354H26.5625V14.7437ZM34.8958 39.7437H40.1041V34.5354H34.8958V39.7437ZM34.8958 31.4104H40.1041V26.2021H34.8958V31.4104Z" fill="url(#paint1_linear_15_179)"/>
</g>
<defs>
<linearGradient id="paint0_linear_15_179" x1="6.77086" y1="24.6393" x2="34.6905" y2="24.6393" gradientUnits="userSpaceOnUse">
<stop stop-color="#52D17C"/>
<stop offset="0.33" stop-color="#4AA647"/>
</linearGradient>
<linearGradient id="paint1_linear_15_179" x1="24.9994" y1="6.41013" x2="24.9994" y2="31.7341" gradientUnits="userSpaceOnUse">
<stop stop-color="#29852F" stop-opacity="0.301961"/>
<stop offset="0.5" stop-color="#4AA647" stop-opacity="0"/>
</linearGradient>
</defs>
</svg>
