<svg width="70" height="70" viewBox="0 0 70 70" fill="none" xmlns="http://www.w3.org/2000/svg">
<mask id="mask0_15_103" style="mask-type:alpha" maskUnits="userSpaceOnUse" x="0" y="0" width="70" height="70">
<rect width="70" height="70" fill="#D9D9D9"/>
</mask>
<g mask="url(#mask0_15_103)">
<path d="M37.1875 59.7917V37.1875H59.7916V59.7917H37.1875ZM37.1875 32.8125V10.2084H59.7916V32.8125H37.1875ZM10.2083 32.8125V10.2084H32.8125V32.8125H10.2083ZM10.2083 59.7917V37.1875H32.8125V59.7917H10.2083Z" fill="url(#paint0_linear_15_103)"/>
<path d="M37.1875 59.7917V37.1875H59.7916V59.7917H37.1875ZM37.1875 32.8125V10.2084H59.7916V32.8125H37.1875ZM10.2083 32.8125V10.2084H32.8125V32.8125H10.2083ZM10.2083 59.7917V37.1875H32.8125V59.7917H10.2083Z" fill="url(#paint1_linear_15_103)"/>
</g>
<defs>
<linearGradient id="paint0_linear_15_103" x1="10.2084" y1="34.9997" x2="48.1791" y2="34.9997" gradientUnits="userSpaceOnUse">
<stop stop-color="#52D17C"/>
<stop offset="0.33" stop-color="#4AA647"/>
</linearGradient>
<linearGradient id="paint1_linear_15_103" x1="34.9991" y1="10.208" x2="34.9991" y2="44.6486" gradientUnits="userSpaceOnUse">
<stop stop-color="#29852F" stop-opacity="0.301961"/>
<stop offset="0.5" stop-color="#4AA647" stop-opacity="0"/>
</linearGradient>
</defs>
</svg>
