<svg width="163" height="32" viewBox="0 0 163 32" fill="none" xmlns="http://www.w3.org/2000/svg">
<path d="M4.42865 10.222C4.42865 8.01275 6.21341 6.222 8.41478 6.222H31.0008V29.333C31.0008 30.8058 29.811 32 28.3434 32H9.74257C6.80792 32 4.42865 29.6123 4.42865 26.667V10.222Z" fill="url(#paint0_radial_1_430)"/>
<path d="M4.42865 10.222C4.42865 8.01275 6.21341 6.222 8.41478 6.222H31.0008V29.333C31.0008 30.8058 29.811 32 28.3434 32H9.74257C6.80792 32 4.42865 29.6123 4.42865 26.667V10.222Z" fill="url(#paint1_radial_1_430)"/>
<path d="M4.42865 14.667C4.42865 12.4575 6.21341 10.667 8.41478 10.667H20.3719C18.9043 10.667 17.7146 11.861 17.7146 13.3338V18.667C17.7146 20.1395 16.5251 21.3338 15.0572 21.3338H9.74332C6.80842 21.3338 4.4294 23.7215 4.4294 26.667V14.667H4.42865Z" fill="url(#paint2_linear_1_430)"/>
<path d="M4.42865 14.667C4.42865 12.4575 6.21341 10.667 8.41478 10.667H20.3719C18.9043 10.667 17.7146 11.861 17.7146 13.3338V18.667C17.7146 20.1395 16.5251 21.3338 15.0572 21.3338H9.74332C6.80842 21.3338 4.4294 23.7215 4.4294 26.667V14.667H4.42865Z" fill="url(#paint3_linear_1_430)"/>
<path d="M4.42865 5.333C4.42865 2.38775 6.80792 0 9.74257 0H20.3714V10.667H9.74257C6.80792 10.667 4.42865 13.0548 4.42865 16V5.333Z" fill="url(#paint4_linear_1_430)"/>
<path d="M4.42865 5.333C4.42865 2.38775 6.80792 0 9.74257 0H20.3714V10.667H9.74257C6.80792 10.667 4.42865 13.0548 4.42865 16V5.333Z" fill="url(#paint5_radial_1_430)"/>
<path d="M4.42865 5.333C4.42865 2.38775 6.80792 0 9.74257 0H20.3714V10.667H9.74257C6.80792 10.667 4.42865 13.0548 4.42865 16V5.333Z" fill="url(#paint6_linear_1_430)"/>
<path d="M20.3714 0H28.3427C29.8103 0 31 1.19375 31 2.66625V8.00075C31 9.47325 29.8103 10.667 28.3427 10.667H20.3714C18.9038 10.667 17.7141 9.47325 17.7141 8.00075V2.66625C17.7141 1.19375 18.9038 0 20.3714 0Z" fill="url(#paint7_radial_1_430)"/>
<path d="M2.87859 15.111H11.2926C12.8825 15.111 14.1715 16.4043 14.1715 17.9993V26.4448C14.1715 28.04 12.8825 29.333 11.2926 29.333H2.87859C1.28893 29.333 0 28.04 0 26.4448V17.9993C0 16.4043 1.28893 15.111 2.87859 15.111Z" fill="url(#paint8_radial_1_430)"/>
<path d="M2.87859 15.111H11.2926C12.8825 15.111 14.1715 16.4043 14.1715 17.9993V26.4448C14.1715 28.04 12.8825 29.333 11.2926 29.333H2.87859C1.28893 29.333 0 28.04 0 26.4448V17.9993C0 16.4043 1.28893 15.111 2.87859 15.111Z" fill="url(#paint9_radial_1_430)"/>
<path d="M10.8105 26.2855H8.62581L7.25442 23.6953C7.20533 23.6045 7.16771 23.5328 7.14154 23.4798C7.11912 23.4233 7.0942 23.3588 7.06804 23.287H7.04586C7.01198 23.378 6.98009 23.4515 6.95019 23.5078C6.92004 23.5648 6.88441 23.6345 6.84305 23.7178L5.42057 26.2848H3.36023L5.83268 22.2158L3.52991 18.158H5.68593L6.90484 20.4705C6.95392 20.565 6.99553 20.6483 7.02917 20.72C7.06679 20.7878 7.10442 20.869 7.14204 20.9638H7.16447C7.21679 20.8545 7.25815 20.7673 7.2888 20.7033C7.32269 20.6393 7.36803 20.5543 7.4241 20.4488L8.68835 18.1593H10.743L8.4063 22.155L10.811 26.286L10.8105 26.2855Z" fill="white"/>
<path d="M58.8774 22H57.1489V15.2031C57.1489 14.6465 57.1831 13.9653 57.2515 13.1597H57.2222C57.1147 13.6187 57.0195 13.9482 56.9365 14.1484L53.8018 22H52.6006L49.4585 14.207C49.3706 13.9775 49.2778 13.6284 49.1802 13.1597H49.1509C49.1899 13.5796 49.2095 14.2656 49.2095 15.2178V22H47.5981V11.4971H50.0518L52.813 18.4917C53.0229 19.0288 53.1597 19.4292 53.2231 19.6929H53.2598C53.4404 19.1411 53.5869 18.731 53.6992 18.4624L56.5117 11.4971H58.8774V22ZM60.9868 21.5825V19.7881C61.1479 19.9346 61.3384 20.0664 61.5581 20.1836C61.7827 20.3008 62.0195 20.4009 62.2686 20.4839C62.5176 20.562 62.7666 20.623 63.0156 20.667C63.2646 20.7109 63.4941 20.7329 63.7041 20.7329C64.4365 20.7329 64.981 20.6108 65.3374 20.3667C65.6987 20.1226 65.8794 19.7686 65.8794 19.3047C65.8794 19.0557 65.8184 18.8408 65.6963 18.6602C65.5791 18.4746 65.4131 18.3062 65.1982 18.1548C64.9834 18.0034 64.7295 17.8594 64.4365 17.7227C64.1484 17.5811 63.8384 17.4346 63.5063 17.2832C63.1499 17.0928 62.8179 16.8999 62.5103 16.7046C62.2026 16.5093 61.9341 16.2944 61.7046 16.0601C61.48 15.8208 61.3018 15.5522 61.1699 15.2544C61.043 14.9565 60.9795 14.6074 60.9795 14.207C60.9795 13.7139 61.0894 13.2866 61.3091 12.9253C61.5337 12.5591 61.8267 12.2588 62.188 12.0244C62.5542 11.7852 62.9692 11.6094 63.4331 11.4971C63.897 11.3799 64.3706 11.3213 64.854 11.3213C65.9526 11.3213 66.7534 11.4458 67.2563 11.6948V13.416C66.6606 12.9863 65.894 12.7715 64.9565 12.7715C64.6978 12.7715 64.439 12.7959 64.1802 12.8447C63.9263 12.8936 63.6968 12.9741 63.4917 13.0864C63.2915 13.1987 63.1279 13.3428 63.001 13.5186C62.874 13.6943 62.8105 13.9067 62.8105 14.1558C62.8105 14.3901 62.8594 14.5928 62.957 14.7637C63.0547 14.9346 63.1963 15.0908 63.3818 15.2324C63.5723 15.374 63.8018 15.5132 64.0703 15.6499C64.3438 15.7817 64.6587 15.9258 65.0151 16.082C65.3813 16.2725 65.7256 16.4727 66.0479 16.6826C66.375 16.8926 66.6606 17.1245 66.9048 17.3784C67.1538 17.6323 67.3491 17.9155 67.4907 18.228C67.6372 18.5356 67.7104 18.8872 67.7104 19.2827C67.7104 19.8149 67.603 20.2642 67.3882 20.6304C67.1733 20.9966 66.8828 21.2944 66.5166 21.5239C66.1553 21.7534 65.7378 21.9194 65.2642 22.022C64.7905 22.1245 64.29 22.1758 63.7627 22.1758C63.5869 22.1758 63.3696 22.1611 63.1108 22.1318C62.8569 22.1074 62.5957 22.0684 62.3271 22.0146C62.0586 21.9658 61.8047 21.9048 61.5654 21.8315C61.3262 21.7583 61.1333 21.6753 60.9868 21.5825ZM79.6709 22H73.7749V11.4971H79.4365V12.9766H75.5181V15.9502H79.1289V17.4224H75.5181V20.5278H79.6709V22ZM87.6177 14.5L85.1201 18.2939L87.5884 22H85.6182L84.2998 19.6782C84.2168 19.5366 84.1191 19.356 84.0068 19.1362H83.9775C83.958 19.1802 83.8555 19.3608 83.6699 19.6782L82.3296 22H80.3667L82.9155 18.3232L80.4985 14.5H82.4761L83.7725 16.939C83.8701 17.1196 83.9653 17.3052 84.0581 17.4956H84.0801L85.7573 14.5H87.6177ZM94.041 21.6558C93.4404 22.0024 92.73 22.1758 91.9097 22.1758C90.7964 22.1758 89.8979 21.8291 89.2144 21.1357C88.5308 20.4375 88.189 19.5342 88.189 18.4258C88.189 17.1904 88.5552 16.1992 89.2876 15.4521C90.0249 14.7002 91.0088 14.3242 92.2393 14.3242C92.9229 14.3242 93.5259 14.4438 94.0483 14.6831V16.2651C93.5259 15.8745 92.9692 15.6792 92.3784 15.6792C91.6606 15.6792 91.0723 15.9233 90.6133 16.4116C90.1543 16.895 89.9248 17.5298 89.9248 18.3159C89.9248 19.0923 90.1396 19.7051 90.5693 20.1543C91.0039 20.6035 91.585 20.8281 92.3125 20.8281C92.9229 20.8281 93.499 20.6108 94.041 20.1763V21.6558ZM102.083 18.7114H96.9707C96.9902 19.4048 97.2026 19.9395 97.6079 20.3154C98.0181 20.6914 98.5796 20.8794 99.2925 20.8794C100.093 20.8794 100.828 20.6401 101.497 20.1616V21.5312C100.813 21.9609 99.9102 22.1758 98.7871 22.1758C97.6836 22.1758 96.8169 21.8364 96.187 21.1577C95.562 20.4741 95.2495 19.5146 95.2495 18.2793C95.2495 17.1123 95.5938 16.1626 96.2822 15.4302C96.9756 14.6929 97.835 14.3242 98.8604 14.3242C99.8857 14.3242 100.679 14.6538 101.241 15.313C101.802 15.9722 102.083 16.8877 102.083 18.0596V18.7114ZM100.442 17.5103C100.438 16.8999 100.293 16.4263 100.01 16.0894C99.7271 15.7476 99.3364 15.5767 98.8384 15.5767C98.3501 15.5767 97.9351 15.7549 97.5933 16.1113C97.2563 16.4678 97.0488 16.9341 96.9707 17.5103H100.442ZM105.408 22H103.702V10.8965H105.408V22ZM115.083 22.1758C113.926 22.1758 113.001 21.8267 112.308 21.1284C111.619 20.4253 111.275 19.4951 111.275 18.3379C111.275 17.0781 111.634 16.0942 112.352 15.3862C113.074 14.6782 114.046 14.3242 115.267 14.3242C116.438 14.3242 117.352 14.6685 118.006 15.3569C118.66 16.0454 118.987 17 118.987 18.2207C118.987 19.417 118.633 20.3765 117.925 21.0991C117.222 21.8169 116.275 22.1758 115.083 22.1758ZM115.164 15.6792C114.5 15.6792 113.975 15.9111 113.589 16.375C113.204 16.8389 113.011 17.4785 113.011 18.2939C113.011 19.0801 113.206 19.7002 113.597 20.1543C113.987 20.6035 114.51 20.8281 115.164 20.8281C115.833 20.8281 116.346 20.606 116.702 20.1616C117.063 19.7173 117.244 19.085 117.244 18.2646C117.244 17.4395 117.063 16.8022 116.702 16.353C116.346 15.9038 115.833 15.6792 115.164 15.6792ZM127.403 22H125.696V18.7188H122.43V22H120.723V14.5H122.43V17.4443H125.696V14.5H127.403V22ZM135.818 22H134.112V15.7964H132.581C132.366 18.1157 131.998 19.7466 131.475 20.689C130.958 21.6265 130.259 22.0952 129.38 22.0952C129.087 22.0952 128.836 22.0537 128.626 21.9707V20.7036C128.797 20.7866 128.98 20.8281 129.175 20.8281C130.225 20.8281 130.899 18.7188 131.197 14.5H135.818V22ZM143.794 22H142.146V20.8281H142.117C141.6 21.7266 140.84 22.1758 139.839 22.1758C139.102 22.1758 138.523 21.9756 138.104 21.5752C137.688 21.1748 137.481 20.645 137.481 19.9858C137.481 18.5698 138.296 17.7446 139.927 17.5103L142.154 17.1953C142.154 16.126 141.646 15.5913 140.63 15.5913C139.737 15.5913 138.931 15.8989 138.213 16.5142V15.0273C139.004 14.5586 139.917 14.3242 140.953 14.3242C142.847 14.3242 143.794 15.2568 143.794 17.1221V22ZM142.154 18.3159L140.579 18.5356C140.091 18.5991 139.722 18.7188 139.473 18.8945C139.229 19.0654 139.107 19.3682 139.107 19.8027C139.107 20.1201 139.219 20.3813 139.444 20.5864C139.673 20.7866 139.979 20.8867 140.359 20.8867C140.877 20.8867 141.304 20.7061 141.641 20.3447C141.983 19.9785 142.154 19.5195 142.154 18.9678V18.3159ZM152.686 22H151.148V16.4995C151.05 16.6948 150.901 16.9658 150.701 17.3125L147.544 22H145.875V14.5H147.435V19.8906C147.488 19.7637 147.603 19.5439 147.779 19.2314L150.979 14.5H152.686V22ZM152.195 10.8892C152.117 11.6216 151.814 12.2002 151.287 12.625C150.765 13.0449 150.108 13.2549 149.317 13.2549C148.506 13.2549 147.845 13.0449 147.332 12.625C146.824 12.2002 146.546 11.6216 146.497 10.8892H147.911C147.979 11.7778 148.455 12.2222 149.339 12.2222C149.729 12.2222 150.052 12.105 150.306 11.8706C150.564 11.6362 150.723 11.3091 150.782 10.8892H152.195ZM161.592 22H159.886V18.7188H156.619V22H154.913V14.5H156.619V17.4443H159.886V14.5H161.592V22Z" fill="#1D1D1D"/>
<defs>
<radialGradient id="paint0_radial_1_430" cx="0" cy="0" r="1" gradientTransform="matrix(-25.0964 -26.4978 -20.4833 19.5392 31.0781 34.0349)" gradientUnits="userSpaceOnUse">
<stop offset="0.06" stop-color="#379539"/>
<stop offset="0.42" stop-color="#297C2D"/>
<stop offset="0.7" stop-color="#15561C"/>
</radialGradient>
<radialGradient id="paint1_radial_1_430" cx="0" cy="0" r="1" gradientTransform="matrix(-10.6107 -10.2954 -7.93714 8.23893 12.4659 15.5975)" gradientUnits="userSpaceOnUse">
<stop stop-color="#073B10" stop-opacity="0.698039"/>
<stop offset="0.99" stop-color="#084A13" stop-opacity="0"/>
</radialGradient>
<linearGradient id="paint2_linear_1_430" x1="4.42867" y1="18.6669" x2="16.638" y2="18.6669" gradientUnits="userSpaceOnUse">
<stop stop-color="#52D17C"/>
<stop offset="0.33" stop-color="#4AA647"/>
</linearGradient>
<linearGradient id="paint3_linear_1_430" x1="12.4" y1="10.6669" x2="12.4" y2="21.7805" gradientUnits="userSpaceOnUse">
<stop stop-color="#29852F" stop-opacity="0.301961"/>
<stop offset="0.5" stop-color="#4AA647" stop-opacity="0"/>
</linearGradient>
<linearGradient id="paint4_linear_1_430" x1="5.13414" y1="13.1059" x2="19.9085" y2="0.334424" gradientUnits="userSpaceOnUse">
<stop stop-color="#66D052"/>
<stop offset="1" stop-color="#85E972"/>
</linearGradient>
<radialGradient id="paint5_radial_1_430" cx="0" cy="0" r="1" gradientUnits="userSpaceOnUse" gradientTransform="translate(19.9696 6.59894) rotate(-180) scale(7.99161 16.9702)">
<stop offset="0.29" stop-color="#4EB43B"/>
<stop offset="1" stop-color="#72CC61" stop-opacity="0"/>
</radialGradient>
<linearGradient id="paint6_linear_1_430" x1="11.6161" y1="8" x2="4.42867" y2="8" gradientUnits="userSpaceOnUse">
<stop offset="0.18" stop-color="#C0E075" stop-opacity="0"/>
<stop offset="1" stop-color="#D1EB95"/>
</linearGradient>
<radialGradient id="paint7_radial_1_430" cx="0" cy="0" r="1" gradientTransform="matrix(-14.98 -12.1626 12.0859 -14.9909 32.8706 12.2943)" gradientUnits="userSpaceOnUse">
<stop offset="0.44" stop-color="#79E96D"/>
<stop offset="1" stop-color="#D0EB76"/>
</radialGradient>
<radialGradient id="paint8_radial_1_430" cx="0" cy="0" r="1" gradientTransform="matrix(14.1687 14.2212 40.3492 -40.4903 0.416365 15.1873)" gradientUnits="userSpaceOnUse">
<stop stop-color="#20A85E"/>
<stop offset="0.94" stop-color="#09442A"/>
</radialGradient>
<radialGradient id="paint9_radial_1_430" cx="0" cy="0" r="1" gradientUnits="userSpaceOnUse" gradientTransform="translate(7.24745 23.6452) rotate(90) scale(9.95635 11.4292)">
<stop offset="0.58" stop-color="#33A662" stop-opacity="0"/>
<stop offset="0.97" stop-color="#98F0B0" stop-opacity="0.301961"/>
</radialGradient>
</defs>
</svg>
