<svg width="50" height="50" viewBox="0 0 50 50" fill="none" xmlns="http://www.w3.org/2000/svg">
<mask id="mask0_15_183" style="mask-type:alpha" maskUnits="userSpaceOnUse" x="0" y="0" width="50" height="50">
<rect width="50" height="50" fill="#D9D9D9"/>
</mask>
<g mask="url(#mask0_15_183)">
<path d="M33.0927 22.0432L40.9453 17.5323L33.0927 13.0208L25.2406 17.5323L33.0927 22.0432ZM33.0927 28.1969L38.662 24.9839V20.9698L33.0927 24.2229L27.524 20.9698V24.9839L33.0927 28.1969ZM5.20833 40.625V35.4969C6.62395 35.4969 7.83263 35.9976 8.83437 36.999C9.83576 38.0007 10.3365 39.2094 10.3365 40.625H5.20833ZM14.9036 40.625C14.9036 37.9566 13.9582 35.6802 12.0672 33.7958C10.1762 31.9115 7.88993 30.9561 5.20833 30.9297V27.8047C8.77673 27.8047 11.8055 29.0484 14.2948 31.5359C16.784 34.0238 18.0286 37.0535 18.0286 40.625H14.9036ZM22.9969 40.625C22.9969 38.1569 22.5288 35.8451 21.5927 33.6896C20.6566 31.5344 19.3865 29.6549 17.7823 28.051C16.1785 26.4469 14.299 25.1767 12.1437 24.2406C9.98819 23.3045 7.67638 22.8365 5.20833 22.8365V19.7115C8.10104 19.7115 10.8137 20.2576 13.3463 21.35C15.8793 22.4424 18.0957 23.9384 19.9953 25.838C21.895 27.7377 23.391 29.954 24.4833 32.487C25.5757 35.0196 26.1219 37.7323 26.1219 40.625H22.9969ZM30.6891 40.625C30.6891 37.0969 30.0194 33.7892 28.6802 30.7021C27.3406 27.6149 25.5193 24.92 23.2161 22.6172C20.9134 20.3141 18.2184 18.4927 15.1312 17.1531C12.0441 15.8139 8.73645 15.1443 5.20833 15.1443V13.1411C5.20833 12.1054 5.57708 11.2187 6.31458 10.4812C7.05208 9.74375 7.93871 9.375 8.97447 9.375H41.0255C42.0613 9.375 42.9479 9.74375 43.6854 10.4812C44.4229 11.2187 44.7917 12.1054 44.7917 13.1411V36.8589C44.7917 37.8946 44.4229 38.7813 43.6854 39.5188C42.9479 40.2563 42.0613 40.625 41.0255 40.625H30.6891Z" fill="url(#paint0_linear_15_183)"/>
<path d="M33.0927 22.0432L40.9453 17.5323L33.0927 13.0208L25.2406 17.5323L33.0927 22.0432ZM33.0927 28.1969L38.662 24.9839V20.9698L33.0927 24.2229L27.524 20.9698V24.9839L33.0927 28.1969ZM5.20833 40.625V35.4969C6.62395 35.4969 7.83263 35.9976 8.83437 36.999C9.83576 38.0007 10.3365 39.2094 10.3365 40.625H5.20833ZM14.9036 40.625C14.9036 37.9566 13.9582 35.6802 12.0672 33.7958C10.1762 31.9115 7.88993 30.9561 5.20833 30.9297V27.8047C8.77673 27.8047 11.8055 29.0484 14.2948 31.5359C16.784 34.0238 18.0286 37.0535 18.0286 40.625H14.9036ZM22.9969 40.625C22.9969 38.1569 22.5288 35.8451 21.5927 33.6896C20.6566 31.5344 19.3865 29.6549 17.7823 28.051C16.1785 26.4469 14.299 25.1767 12.1437 24.2406C9.98819 23.3045 7.67638 22.8365 5.20833 22.8365V19.7115C8.10104 19.7115 10.8137 20.2576 13.3463 21.35C15.8793 22.4424 18.0957 23.9384 19.9953 25.838C21.895 27.7377 23.391 29.954 24.4833 32.487C25.5757 35.0196 26.1219 37.7323 26.1219 40.625H22.9969ZM30.6891 40.625C30.6891 37.0969 30.0194 33.7892 28.6802 30.7021C27.3406 27.6149 25.5193 24.92 23.2161 22.6172C20.9134 20.3141 18.2184 18.4927 15.1312 17.1531C12.0441 15.8139 8.73645 15.1443 5.20833 15.1443V13.1411C5.20833 12.1054 5.57708 11.2187 6.31458 10.4812C7.05208 9.74375 7.93871 9.375 8.97447 9.375H41.0255C42.0613 9.375 42.9479 9.74375 43.6854 10.4812C44.4229 11.2187 44.7917 12.1054 44.7917 13.1411V36.8589C44.7917 37.8946 44.4229 38.7813 43.6854 39.5188C42.9479 40.2563 42.0613 40.625 41.0255 40.625H30.6891Z" fill="url(#paint1_linear_15_183)"/>
</g>
<defs>
<linearGradient id="paint0_linear_15_183" x1="5.20838" y1="24.9998" x2="35.5211" y2="24.9998" gradientUnits="userSpaceOnUse">
<stop stop-color="#52D17C"/>
<stop offset="0.33" stop-color="#4AA647"/>
</linearGradient>
<linearGradient id="paint1_linear_15_183" x1="24.9993" y1="9.37477" x2="24.9993" y2="31.081" gradientUnits="userSpaceOnUse">
<stop stop-color="#29852F" stop-opacity="0.301961"/>
<stop offset="0.5" stop-color="#4AA647" stop-opacity="0"/>
</linearGradient>
</defs>
</svg>
